#N canvas 0 0 450 300 10;
#X obj 161 69 moses \$1;
#X obj 161 41 inlet;
#X obj 206 141 outlet;
#X obj 233 44 loadbang;
#X obj 233 65 f \$2;
#X obj 206 111 moses;
#X obj 233 87 + 1;
#X obj 206 21 inlet;
#X obj 298 42 inlet;
#X connect 0 1 5 0;
#X connect 1 0 0 0;
#X connect 3 0 4 0;
#X connect 4 0 6 0;
#X connect 5 0 2 0;
#X connect 6 0 5 1;
#X connect 7 0 0 1;
#X connect 8 0 6 0;
