#N canvas 0 0 361 275 10;
#X obj 62 14 inlet;
#X obj 56 181 outlet;
#X obj 56 159 spigot 0;
#X obj 101 134 f 0;
#X obj 72 135 f 1;
#X obj 101 111 delay \$1;
#X text 120 91 double-tap window is configurable;
#X obj 62 85 t b f b;
#X obj 62 62 spigot;
#X obj 62 37 unpack f f;
#X text 133 36 step number \, status;
#X connect 0 0 9 0;
#X connect 2 0 1 0;
#X connect 3 0 2 1;
#X connect 4 0 2 1;
#X connect 5 0 3 0;
#X connect 7 0 4 0;
#X connect 7 1 2 0;
#X connect 7 2 5 0;
#X connect 8 0 7 0;
#X connect 9 0 8 0;
#X connect 9 1 8 1;
