#N canvas 634 206 548 368 10;
#X obj 99 46 inlet;
#X obj 99 71 moses 8;
#X obj 114 164 select 0 1;
#X obj 114 190 f 8;
#X obj 142 190 f 6;
#X obj 99 217 + 8;
#X text 130 215 2nd seq row;
#X obj 312 310 outlet;
#X obj 312 133 - 8;
#X text 83 20 pad number;
#X text 310 330 step number;
#X obj 114 136 r \$1-sequence_type_triplet;
#X obj 327 264 pageoffset \$1;
#X obj 312 288 +;
#X connect 0 0 1 0;
#X connect 1 0 5 0;
#X connect 1 1 8 0;
#X connect 2 0 3 0;
#X connect 2 1 4 0;
#X connect 3 0 5 1;
#X connect 4 0 5 1;
#X connect 5 0 13 0;
#X connect 8 0 13 0;
#X connect 11 0 2 0;
#X connect 12 0 13 1;
#X connect 13 0 7 0;
