#N canvas 395 205 450 300 10;
#X obj 136 233 outlet;
#X obj 157 128 select 0 1;
#X obj 190 150 f 12;
#X obj 157 150 f 16;
#X obj 136 207 * 16;
#X obj 136 77 r \$1-page_select;
#X obj 157 106 r \$1-sequence_type_triplet;
#X obj 157 174 t b f;
#X connect 1 0 3 0;
#X connect 1 1 2 0;
#X connect 2 0 7 0;
#X connect 3 0 7 0;
#X connect 4 0 0 0;
#X connect 5 0 4 0;
#X connect 6 0 1 0;
#X connect 7 0 4 0;
#X connect 7 1 4 1;
