#N canvas 301 129 731 569 10;
#X obj 63 45 inlet;
#X obj 63 398 outlet;
#X obj 63 349 pack f f;
#X obj 63 70 t f f;
#X msg 63 373 pad \$2 \$1;
#X obj 108 184 tabread;
#X obj 108 206 != 0;
#X obj 108 321 * 1;
#X obj 123 273 == 0;
#X obj 123 295 + 1;
#X text 216 176 If the value stored in a given sequencer slot is zero
\, clear the LED. If the value is nonzero \, set the LED to yellow
if we're displaying a triplet sequence \, and red if we're displaying
a duplet sequence;
#X text 53 19 pad index;
#X obj 123 248 r \$1-sequence_type_triplet;
#X obj 121 150 tableselector \$1;
#X obj 108 121 pad2step \$1;
#X connect 0 0 3 0;
#X connect 2 0 4 0;
#X connect 3 0 2 0;
#X connect 3 1 14 0;
#X connect 4 0 1 0;
#X connect 5 0 6 0;
#X connect 6 0 7 0;
#X connect 7 0 2 1;
#X connect 8 0 9 0;
#X connect 9 0 7 1;
#X connect 12 0 8 0;
#X connect 13 1 5 0;
#X connect 14 0 5 0;
