#N canvas 174 220 444 403 10;
#X obj 132 44 inlet;
#X obj 132 233 moses 8;
#X obj 186 175 select 0 1;
#X obj 186 201 f 8;
#X obj 214 201 f 6;
#X obj 171 259 - 8;
#X obj 132 259 + 8;
#X text 56 257 1st seq row;
#X text 201 257 2nd seq row;
#X text 109 25 step number;
#X obj 186 150 r \$1-sequence_type_triplet;
#X obj 145 325 outlet;
#X obj 132 93 -;
#X obj 147 68 pageoffset \$1;
#X obj 132 119 boundscheck 0 15;
#X obj 241 57 select 0 1;
#X obj 241 32 r \$1-sequence_type_triplet;
#X obj 241 83 f 15;
#X obj 269 83 f 11;
#X connect 0 0 12 0;
#X connect 1 0 6 0;
#X connect 1 1 5 0;
#X connect 2 0 3 0;
#X connect 2 1 4 0;
#X connect 3 0 1 1;
#X connect 3 0 5 1;
#X connect 4 0 1 1;
#X connect 4 0 5 1;
#X connect 5 0 11 0;
#X connect 6 0 11 0;
#X connect 10 0 2 0;
#X connect 12 0 14 0;
#X connect 13 0 12 1;
#X connect 14 0 1 0;
#X connect 15 0 17 0;
#X connect 15 1 18 0;
#X connect 16 0 15 0;
#X connect 17 0 14 2;
#X connect 18 0 14 2;
