#N canvas 703 319 333 260 10;
#X obj 63 30 inlet;
#X obj 120 201 outlet;
#X obj 197 30 inlet;
#X text 157 9 sequence_type_triplet;
#X obj 101 129 moses 8;
#X obj 155 71 select 0 1;
#X obj 155 97 f 8;
#X obj 183 97 f 6;
#X obj 140 155 - 8;
#X obj 101 155 + 8;
#X text 25 153 1st seq row;
#X text 170 153 2nd seq row;
#X text 40 11 step number;
#X connect 0 0 4 0;
#X connect 2 0 5 0;
#X connect 4 0 9 0;
#X connect 4 1 8 0;
#X connect 5 0 6 0;
#X connect 5 1 7 0;
#X connect 6 0 4 1;
#X connect 6 0 8 1;
#X connect 7 0 4 1;
#X connect 7 0 8 1;
#X connect 8 0 1 0;
#X connect 9 0 1 0;
