#N canvas 613 606 450 300 10;
#X obj 172 36 inlet;
#X text 126 12 sequence_type_triplet;
#X obj 78 116 makefilename %s01_note;
#X obj 240 116 makefilename %s01_value;
#X msg 240 137 set \$1;
#X msg 78 140 set \$1;
#X obj 113 82 symbol duplet;
#X obj 200 81 symbol triplet;
#X obj 172 58 select 0 1;
#X obj 78 164 outlet;
#X obj 240 163 outlet;
#X text 220 183 value table selector;
#X text 50 184 note table selector;
#X connect 0 0 8 0;
#X connect 2 0 5 0;
#X connect 3 0 4 0;
#X connect 4 0 10 0;
#X connect 5 0 9 0;
#X connect 6 0 2 0;
#X connect 6 0 3 0;
#X connect 7 0 2 0;
#X connect 7 0 3 0;
#X connect 8 0 6 0;
#X connect 8 1 7 0;
